<?xml version="1.0" standalone="no"?>
<!DOCTYPE svg PUBLIC "-//W3C//DTD SVG 20010904//EN"
 "http://www.w3.org/TR/2001/REC-SVG-20010904/DTD/svg10.dtd">
<svg version="1.0" xmlns="http://www.w3.org/2000/svg"
 width="1920.000000pt" height="1152.000000pt" viewBox="0 0 1920.000000 1152.000000"
 preserveAspectRatio="xMidYMid meet">

<g transform="translate(0.000000,1152.000000) scale(0.100000,-0.100000)"
fill="#000000" stroke="none">
<path d="M9454 9469 l-71 -20 -21 -132 c-12 -73 -24 -168 -27 -212 -3 -44 -10
-114 -15 -155 -5 -41 -14 -174 -20 -295 -6 -121 -13 -244 -15 -272 -2 -29 0
-55 4 -57 4 -3 48 15 97 40 80 41 99 47 175 51 137 9 254 -36 356 -135 73 -71
88 -93 72 -103 -23 -15 -31 -10 -24 14 7 21 7 21 -8 2 -13 -17 -13 -21 2 -33
15 -13 15 -13 -1 -8 -12 3 -15 1 -11 -9 3 -8 10 -12 17 -8 6 4 17 8 24 9 8 2
17 6 20 10 4 4 -1 4 -10 1 -21 -8 -24 8 -4 16 10 4 22 -8 35 -34 12 -22 21
-43 21 -47 -1 -4 -8 5 -16 21 -13 23 -18 26 -35 16 -13 -7 -18 -16 -14 -27 3
-9 -12 3 -35 28 -22 25 -40 50 -40 55 0 6 5 3 11 -5 9 -13 10 -13 6 0 -2 8 -9
16 -15 16 -23 3 -24 4 -11 22 13 15 12 16 -3 4 -15 -12 -20 -11 -40 8 -13 12
-41 32 -63 46 -171 101 -364 64 -508 -96 -29 -32 -41 -40 -50 -31 -6 6 -15 11
-21 11 -5 0 -1 -6 9 -14 18 -13 19 -16 4 -48 -16 -33 -16 -33 -16 -6 0 17 4
25 10 21 6 -3 7 -1 3 6 -6 9 -11 9 -23 -1 -14 -11 -15 -9 -11 17 3 17 3 24 1
18 -3 -7 -9 -13 -13 -13 -6 0 -5 -11 1 -26 5 -15 8 -29 5 -31 -2 -3 -7 5 -11
16 -3 12 -9 21 -13 21 -13 0 -71 -135 -87 -200 -59 -251 -5 -525 142 -720 25
-34 52 -64 60 -67 7 -3 13 -9 13 -14 0 -4 -7 -6 -15 -3 -16 6 -19 -78 -20
-461 0 -77 -2 -264 -4 -415 -2 -151 2 -390 9 -530 7 -140 14 -295 16 -345 2
-49 8 -112 14 -140 5 -27 10 -92 12 -142 l2 -93 59 0 60 0 -7 38 c-42 257 -28
884 29 1237 33 209 90 372 128 369 9 -1 17 2 17 7 0 15 15 10 39 -10 14 -12
20 -25 15 -32 -4 -7 -3 -9 3 -6 6 4 13 0 17 -8 3 -8 0 -17 -6 -21 -7 -5 -8 -2
-3 6 6 9 4 11 -4 6 -9 -6 -10 -21 -5 -49 7 -44 9 -105 21 -742 6 -312 5 -410
-5 -444 -6 -25 -10 -53 -7 -62 9 -27 -5 -71 -21 -65 -8 3 -14 1 -14 -4 0 -5 8
-10 18 -12 12 -3 9 -6 -10 -10 -26 -5 -28 -3 -28 31 -1 36 -1 36 -14 11 -16
-30 -33 -228 -41 -479 -5 -175 -8 -201 -20 -189 -6 6 -71 241 -84 306 -10 47
-10 47 -5 -13 7 -78 59 -337 85 -423 34 -110 60 -163 78 -160 21 4 68 137 121
346 l11 42 62 0 c75 0 107 8 107 25 0 7 6 16 13 18 7 3 8 6 1 6 -8 1 -6 28 7
89 10 48 18 108 19 135 l0 47 313 1 c171 1 323 2 337 2 23 0 345 61 381 72 14
5 142 -142 612 -699 18 -21 18 -21 12 19 -3 22 -21 155 -40 295 -130 965 -126
939 -159 933 -28 -6 -76 -62 -92 -108 -11 -34 -8 -125 6 -135 13 -9 22 -92 9
-84 -7 4 -9 0 -6 -12 3 -11 9 -45 13 -76 3 -32 11 -58 16 -58 5 0 6 -5 2 -11
-3 -6 0 -62 7 -125 9 -82 16 -114 26 -114 20 0 15 -28 -7 -40 -11 -6 -20 -7
-19 -3 4 16 -14 43 -28 43 -19 0 -43 24 -43 43 0 15 -27 32 -43 28 -5 -1 -6 3
-3 8 4 5 -10 22 -29 37 -20 15 -43 40 -51 56 -10 19 -21 28 -30 24 -8 -3 -15
-1 -15 4 -1 6 -2 14 -3 19 0 4 -17 21 -36 37 -19 15 -53 48 -76 72 -29 31 -47
43 -60 39 -15 -4 -13 -5 6 -6 20 -1 22 -3 10 -11 -20 -13 -67 -13 -72 0 -2 5
-19 7 -41 3 -24 -3 -34 -9 -26 -14 8 -4 -2 -11 -27 -18 -50 -14 -64 -14 -64 0
0 8 -5 8 -15 -1 -20 -17 -19 -6 5 84 69 250 109 514 144 941 26 309 14 875
-23 1180 -129 1034 -508 1822 -976 2028 -135 59 -274 71 -401 36z"/>
<path d="M8850 8932 c0 -4 -12 -20 -26 -35 -14 -15 -56 -90 -94 -165 -209
-421 -341 -965 -391 -1607 -21 -280 -16 -737 12 -1005 5 -52 14 -142 19 -200
14 -147 19 -181 41 -297 10 -55 16 -109 12 -119 -4 -12 -3 -15 6 -10 9 6 12 2
10 -10 -1 -11 1 -26 4 -34 17 -41 58 -232 53 -245 -3 -9 -17 -14 -33 -14 l-28
2 28 4 c49 8 28 18 -30 15 -37 -2 -53 0 -45 6 10 6 2 11 -25 15 -22 4 -39 2
-41 -3 -5 -13 -52 -13 -72 0 -12 8 -10 10 10 11 19 1 21 2 6 6 -13 4 -31 -8
-60 -39 -23 -24 -57 -57 -76 -72 -19 -16 -36 -33 -36 -37 -1 -5 -2 -13 -3 -19
0 -5 -7 -7 -15 -4 -9 4 -20 -5 -30 -24 -8 -16 -31 -41 -51 -56 -19 -15 -33
-32 -29 -37 3 -5 2 -9 -3 -8 -16 4 -43 -13 -43 -28 0 -19 -24 -43 -43 -43 -14
0 -32 -27 -28 -43 1 -4 -8 -3 -19 3 -22 12 -27 40 -7 40 10 0 17 32 26 114 7
63 10 119 7 125 -4 6 -3 11 2 11 5 0 13 26 16 58 4 31 10 65 13 76 3 12 1 16
-6 12 -13 -8 -4 75 9 84 14 10 17 101 6 135 -16 46 -64 102 -92 108 -33 6 -29
32 -159 -933 -19 -140 -38 -273 -41 -295 l-6 -40 39 45 c22 25 154 180 293
345 139 165 260 307 269 316 15 16 29 14 196 -20 159 -32 194 -36 301 -33
l122 3 -15 47 c-21 68 -42 153 -65 272 -11 58 -24 125 -29 150 -9 45 -23 151
-59 425 -11 83 -24 231 -31 330 -14 221 -19 860 -8 1010 24 320 32 407 55 595
31 255 71 479 123 681 58 224 82 337 86 392 2 43 1 46 -11 30 -13 -17 -14 -17
-8 0 3 9 3 17 0 17 -3 0 -6 -3 -6 -8z"/>
<path d="M9286 8222 c-3 -5 1 -9 9 -9 8 0 12 4 9 9 -3 4 -7 8 -9 8 -2 0 -6 -4
-9 -8z"/>
<path d="M10727 2089 c7 -7 15 -10 18 -7 3 3 -2 9 -12 12 -14 6 -15 5 -6 -5z"/>
<path d="M10562 2051 c13 -14 24 -27 25 -29 2 -4 105 39 116 49 12 9 -45 6
-61 -5 -7 -4 -25 -5 -40 -2 -15 3 -21 3 -14 0 6 -3 9 -10 6 -15 -3 -6 -11 -6
-20 2 -7 6 -12 15 -9 18 2 4 -3 8 -11 8 -11 0 -9 -7 8 -26z"/>
</g>
</svg>
